<?xml version="1.0" encoding="utf-8"?>
<!-- Generator: Adobe Illustrator 17.1.0, SVG Export Plug-In . SVG Version: 6.00 Build 0)  -->
<!DOCTYPE svg PUBLIC "-//W3C//DTD SVG 1.1//EN" "http://www.w3.org/Graphics/SVG/1.1/DTD/svg11.dtd">
<svg version="1.1" id="Layer_1" xmlns="http://www.w3.org/2000/svg" xmlns:xlink="http://www.w3.org/1999/xlink" x="0px" y="0px"
	 width="36px" height="36px" viewBox="0 0 36 36" style="enable-background:new 0 0 36 36;" xml:space="preserve">
<circle style="fill:none;stroke:#000000;stroke-width:0.3993;" cx="18" cy="17.999" r="17.301"/>
<polyline style="fill:none;stroke:#000000;stroke-width:0.3993;" points="14.823,23.313 17.108,31.512 20.109,25.974 "/>
<line style="fill:none;stroke:#000000;stroke-width:0.3993;" x1="18.011" y1="14.229" x2="16.984" y2="31.42"/>
<path style="fill:#FFFFFF;stroke:#000000;stroke-width:0.3993;" d="M17.875,16.322c0,0,4.284-3.996,4.284-7.266
	c0-3.266-1.921-4.568-4.284-4.568c-2.369,0-4.288,1.302-4.288,4.568C13.587,12.326,17.875,16.322,17.875,16.322z"/>
<path style="fill:#FFFFFF;stroke:#000000;stroke-width:0.3993;" d="M20.062,25.986c0,0,5.269-2.571,6.226-5.695
	c0.957-3.124-0.498-4.931-2.758-5.62c-2.264-0.691-4.481-0.005-5.44,3.119C17.136,20.914,20.062,25.986,20.062,25.986z"/>
<path style="fill:#FFFFFF;stroke:#000000;stroke-width:0.3993;" d="M15.038,23.904c0,0,3.843-4.421,3.501-7.669
	c-0.343-3.253-2.388-4.348-4.742-4.1c-2.354,0.244-4.126,1.742-3.781,4.991C10.357,20.377,15.038,23.904,15.038,23.904z"/>
<path d="M24.542,16.208c1.231,0.745,1.724,1.789,1.036,3.997C25.733,18.548,25.344,17.328,24.542,16.208z"/>
<path d="M19.948,6.115c1.231,0.745,1.724,1.789,1.036,3.997C21.139,8.454,20.75,7.234,19.948,6.115z"/>
<path d="M11.717,18c-0.929-1.099-1.063-2.245,0.294-4.119C11.335,15.403,11.314,16.683,11.717,18z"/>
</svg>
