<?xml version="1.0" encoding="utf-8"?>
<!-- Generator: Adobe Illustrator 17.1.0, SVG Export Plug-In . SVG Version: 6.00 Build 0)  -->
<!DOCTYPE svg PUBLIC "-//W3C//DTD SVG 1.1//EN" "http://www.w3.org/Graphics/SVG/1.1/DTD/svg11.dtd">
<svg version="1.1" id="Layer_1" xmlns="http://www.w3.org/2000/svg" xmlns:xlink="http://www.w3.org/1999/xlink" x="0px" y="0px"
	 width="36px" height="36px" viewBox="0 0 36 36" style="enable-background:new 0 0 36 36;" xml:space="preserve">
<circle style="fill:none;stroke:#221F1F;stroke-width:0.3993;" cx="18" cy="17.999" r="17.301"/>
<path style="fill:#231F20;" d="M16.538,6.256c-0.536-0.836-0.705-1.946-0.483-2.143c0.223-0.197,0.983,0.184,1.607,1.147
	c0.63,0.981,0.694,2.047,0.494,2.225C17.955,7.663,17.183,7.257,16.538,6.256z"/>
<path style="fill:#231F20;" d="M17.439,5.412c0,1.188,0.48,2.054,0.688,2.054c0.181,0,0.595-0.776,0.595-2.052
	c0-1.063-0.436-1.979-0.648-1.979C17.855,3.435,17.439,4.206,17.439,5.412z"/>
<path style="fill:#231F20;" d="M19.709,6.256c0.538-0.836,0.714-1.946,0.487-2.143c-0.223-0.197-0.985,0.184-1.607,1.147
	c-0.63,0.981-0.696,2.047-0.498,2.225C18.294,7.663,19.063,7.257,19.709,6.256z"/>
<path style="fill:#231F20;" d="M26.419,20.95h-8.41l-0.009,0.392l-0.007-0.392H9.581c0,0,1.338,2.875,6.159,2.875
	c0,0-0.204,1.149,1.029,1.149c0,0,2.36,4.14-0.926,5.981c-2.441,1.366-2.876,1.035-2.876,1.035l-0.101,0.575h10.266L23.03,31.99
	c0,0-0.435,0.332-2.874-1.035c-3.288-1.84-0.926-5.981-0.926-5.981c1.232,0,1.026-1.149,1.026-1.149
	C25.083,23.825,26.419,20.95,26.419,20.95z"/>
<circle style="fill:#231F20;" cx="20.862" cy="11.922" r="1.069"/>
<circle style="fill:#231F20;" cx="14.941" cy="11.922" r="1.069"/>
<circle style="fill:#231F20;" cx="12.524" cy="18.452" r="1.069"/>
<circle style="fill:#231F20;" cx="18.42" cy="18.452" r="1.069"/>
<circle style="fill:#231F20;" cx="24.055" cy="18.452" r="1.069"/>
<path style="fill:#231F20;" d="M18.929,8.232c-0.142,0.424-0.542,0.73-1.014,0.73c-0.47,0-0.87-0.304-1.013-0.726L18.929,8.232z"/>
<path style="fill:#231F20;" d="M16.429,14.753c-0.142,0.424-0.542,0.73-1.014,0.73c-0.47,0-0.87-0.304-1.013-0.726L16.429,14.753z"
	/>
<path style="fill:#231F20;" d="M22.525,14.753c-0.142,0.424-0.542,0.73-1.014,0.73c-0.47,0-0.87-0.304-1.013-0.726L22.525,14.753z"
	/>
<path style="fill:#231F20;" d="M23.276,8.391c-0.046,0.137,0.144,0.102,0.051,0.208c-0.196,0.222-0.483,0.363-0.803,0.363
	c-0.47,0-0.87-0.304-1.013-0.726L23.276,8.391z"/>
<path style="fill:#231F20;" d="M12.865,8.391c0.046,0.137-0.144,0.102-0.051,0.208c0.196,0.222,0.483,0.363,0.803,0.363
	c0.47,0,0.87-0.304,1.013-0.726L12.865,8.391z"/>
<path style="fill:none;" d="M24.055,13.571V9.981c0-0.966-0.783-1.749-1.749-1.749H13.98c-0.966,0-1.749,0.783-1.749,1.749v3.591"/>
<path style="fill:#231F20;" d="M24.263,13.571h-0.416V9.98c0-0.85-0.691-1.541-1.541-1.541H13.98c-0.85,0-1.541,0.691-1.541,1.541
	v3.591h-0.416V9.98c0-1.079,0.878-1.957,1.957-1.957h8.326c1.079,0,1.957,0.878,1.957,1.957V13.571z"/>
<path style="fill:#231F20;" d="M26.485,20.053h-0.416v-3.59c0-0.85-0.691-1.542-1.541-1.542H11.531c-0.85,0-1.541,0.691-1.541,1.542
	v3.59H9.574v-3.59c0-1.08,0.878-1.958,1.957-1.958h12.997c1.079,0,1.957,0.878,1.957,1.958V20.053z"/>
</svg>
