<?xml version="1.0" encoding="utf-8"?>
<!-- Generator: Adobe Illustrator 17.1.0, SVG Export Plug-In . SVG Version: 6.00 Build 0)  -->
<!DOCTYPE svg PUBLIC "-//W3C//DTD SVG 1.1//EN" "http://www.w3.org/Graphics/SVG/1.1/DTD/svg11.dtd">
<svg version="1.1" id="Layer_1" xmlns="http://www.w3.org/2000/svg" xmlns:xlink="http://www.w3.org/1999/xlink" x="0px" y="0px"
	 width="36px" height="36px" viewBox="0 0 36 36" style="enable-background:new 0 0 36 36;" xml:space="preserve">
<circle style="fill:none;stroke:#221F1F;stroke-width:0.3993;" cx="18" cy="17.999" r="17.301"/>
<path style="fill:#231F20;" d="M16.604,5.938c-0.536-0.836-0.705-1.946-0.483-2.143c0.223-0.197,0.983,0.184,1.607,1.147
	c0.63,0.981,0.694,2.047,0.494,2.225C18.021,7.345,17.25,6.939,16.604,5.938z"/>
<path style="fill:#231F20;" d="M17.505,5.094c0,1.188,0.48,2.054,0.688,2.054c0.181,0,0.595-0.776,0.595-2.052
	c0-1.063-0.436-1.979-0.648-1.979C17.922,3.117,17.505,3.888,17.505,5.094z"/>
<path style="fill:#231F20;" d="M19.775,5.938c0.538-0.836,0.714-1.946,0.487-2.143c-0.223-0.197-0.985,0.184-1.607,1.147
	c-0.63,0.981-0.696,2.047-0.498,2.225C18.36,7.345,19.13,6.939,19.775,5.938z"/>
<path style="fill:#231F20;" d="M26.485,20.632h-8.41l-0.009,0.392l-0.007-0.392H9.648c0,0,1.338,2.875,6.159,2.875
	c0,0-0.204,1.149,1.029,1.149c0,0,2.36,4.14-0.926,5.981c-2.441,1.366-2.876,1.035-2.876,1.035l-0.101,0.575H23.2l-0.104-0.575
	c0,0-0.435,0.332-2.874-1.035c-3.288-1.84-0.926-5.981-0.926-5.981c1.232,0,1.026-1.149,1.026-1.149
	C25.149,23.507,26.485,20.632,26.485,20.632z"/>
<path style="fill:none;stroke:#231F20;stroke-width:0.4163;" d="M24.121,13.253V9.663c0-0.966-0.783-1.749-1.749-1.749h-8.325
	c-0.966,0-1.749,0.783-1.749,1.749v3.591"/>
<path style="fill:none;stroke:#231F20;stroke-width:0.4163;" d="M26.343,19.735v-3.591c0-0.966-0.783-1.749-1.749-1.749H11.598
	c-0.966,0-1.749,0.783-1.749,1.749v3.591"/>
</svg>
