<?xml version="1.0" encoding="UTF-8" standalone="no"?>
<svg width="196px" height="78px" viewBox="0 0 196 78" version="1.1" xmlns="http://www.w3.org/2000/svg" xmlns:xlink="http://www.w3.org/1999/xlink" xmlns:sketch="http://www.bohemiancoding.com/sketch/ns">
    <!-- Generator: Sketch 3.0.4 (8053) - http://www.bohemiancoding.com/sketch -->
    <title>Untitled 4</title>
    <desc>Created with Sketch.</desc>
    <defs></defs>
    <g id="Page-1" stroke="none" stroke-width="1" fill="none" fill-rule="evenodd" sketch:type="MSPage">
        <g id="logo" sketch:type="MSLayerGroup" transform="translate(0.000000, 1.000000)" fill="#4D4D4E">
            <g id="Group" sketch:type="MSShapeGroup">
                <g transform="translate(18.000000, 0.000000)" id="Shape">
                    <path d="M118.698,-0.64 L118.698,-0.64 C119.366,-0.64 123.184,-0.618 123.872,-0.64 C124.56,-0.662 125.26,-0.592 125.97,-0.64 C126.68,-0.64 134.55,-0.618 135.216,-0.64 C135.884,-0.662 136.522,-0.64 137.146,-0.64 C141.894,-0.64 143.3,-0.208 145.388,0.568 C147.476,1.348 148.876,2.754 150.074,3.886 C151.272,5.014 152.096,6.24 152.542,7.546 C152.982,8.858 153.21,10.046 153.21,11.114 C153.21,12.578 152.884,13.934 152.24,15.176 C151.6,16.424 150.732,17.508 149.642,18.44 C148.552,19.372 147.3,20.132 145.878,20.706 C144.458,21.286 142.966,21.66 141.414,21.84 L141.414,21.976 C143.014,22.106 144.646,22.454 146.31,23.006 C147.974,23.564 149.482,24.34 150.838,25.338 C152.194,26.342 153.294,27.572 154.14,29.036 C154.98,30.506 155.404,32.192 155.404,34.102 C155.404,36.104 155.024,37.936 154.27,39.6 C153.516,41.264 152.382,42.696 150.876,43.894 C149.362,45.098 147.454,46.042 145.144,46.73 C142.834,47.418 140.144,47.76 137.08,47.76 C136.456,47.76 135.848,47.782 135.248,47.76 C134.646,47.738 126.836,47.804 126.17,47.76 C125.502,47.712 124.814,47.782 124.104,47.76 C123.394,47.738 119.494,47.76 118.696,47.76 L118.696,47.76 L118.696,-0.64 L118.698,-0.64 Z M124.236,21.576 L137.55,21.576 C138.792,21.576 139.926,21.418 140.95,21.11 C141.97,20.8 142.848,20.254 143.58,19.478 C144.312,18.702 144.882,17.646 145.278,16.31 C145.68,14.976 145.88,13.29 145.88,11.244 C145.88,8.934 145.582,7.08 144.98,5.68 C144.378,4.28 143.602,3.228 142.648,2.518 C141.694,1.808 140.626,1.342 139.448,1.118 C138.27,0.894 137.106,0.782 135.95,0.782 C135.152,0.782 127.158,0.792 126.334,0.814 C125.516,0.836 124.816,0.896 124.236,0.982 L124.236,21.576 L124.236,21.576 Z M124.236,46.566 C124.772,46.61 125.358,46.664 126.004,46.734 C126.65,46.8 134.752,46.832 135.95,46.832 C138.038,46.832 139.828,46.632 141.314,46.236 C142.806,45.834 144.026,45.136 144.98,44.132 C145.934,43.134 146.634,41.81 147.078,40.168 C147.522,38.526 147.746,36.458 147.746,33.974 C147.746,30.416 146.992,27.618 145.48,25.574 C143.972,23.534 141.728,22.51 138.75,22.51 L124.238,22.51 L124.238,46.566 L124.236,46.566 Z"></path>
                    <path d="M88.776,47.732 C86.052,47.732 83.402,47.236 80.83,46.244 C78.254,45.246 75.82,43.626 73.528,41.376 C71.41,39.258 69.636,36.75 68.212,33.852 C66.782,30.954 66.068,27.6 66.068,23.794 C66.068,20.552 66.654,17.458 67.82,14.518 C68.986,11.578 70.608,8.98 72.688,6.73 C74.762,4.48 77.202,2.702 80.016,1.382 C82.83,0.062 85.898,-0.598 89.23,-0.598 L102.726,-0.598 L103.698,-0.598 L103.698,13.546 L102.986,13.546 C102.596,11.898 102.098,10.278 101.492,8.678 C100.89,7.078 100.046,5.664 98.962,4.428 C97.88,3.198 96.506,2.2 94.844,1.444 C93.176,0.688 91.112,0.308 88.646,0.308 C86.354,0.308 84.386,0.662 82.744,1.38 C81.102,2.092 79.718,3.044 78.594,4.232 C77.47,5.426 76.572,6.808 75.902,8.388 C75.232,9.966 74.724,11.63 74.376,13.382 C74.028,15.134 73.8,16.908 73.694,18.698 C73.584,20.494 73.53,22.194 73.53,23.794 C73.53,28.334 73.9,32.1 74.634,35.082 C75.368,38.064 76.398,40.426 77.718,42.156 C79.038,43.882 80.628,45.096 82.486,45.788 C84.344,46.48 86.398,46.822 88.648,46.822 C91.546,46.822 93.886,46.416 95.66,45.592 C97.428,44.768 98.86,43.702 99.942,42.382 C101.02,41.062 101.842,39.568 102.402,37.904 C102.966,36.236 103.464,34.582 103.896,32.94 L104.608,32.94 L104.608,47.728 L103.636,47.728"></path>
                    <path d="M61.982,-0.536 L62.242,-0.536 L44.58,48.096 L42.87,48.096 L31.14,15.356 L31.002,15.356 L19.134,48.096 L17.292,48.096 L-0.1,-0.536 L4.518,-0.536 L4.696,-0.536 L7.2,-0.536 L21.25,39.026 L21.388,39.026 L30.458,13.858 L25.274,-0.536 L27.256,-0.536 L29.742,-0.536 L32.574,-0.536 L46.624,39.026 L46.762,39.026 L61.084,-0.536 L61.45,-0.536 L61.982,-0.536 L61.982,-0.536 Z"></path>
                </g>
                <path d="M14.536,73.502 L14.584,73.502 L18.268,58.854 L19.912,58.854 L15.476,75.754 L13.716,75.754 L9.796,60.824 L9.748,60.824 L5.828,75.754 L4.068,75.754 L-0.298,58.854 L1.298,58.854 L4.936,73.502 L4.984,73.502 L8.904,58.854 L10.688,58.854 L14.536,73.502 L14.536,73.502 Z" id="Shape"></path>
                <g transform="translate(22.000000, 64.000000)" id="Shape">
                    <path d="M-0.368,11.756 L-0.368,-0.076 L0.75,-0.076 L0.75,11.756 L-0.368,11.756 L-0.368,11.756 Z"></path>
                    <path d="M0.974,11.978 L-0.592,11.978 L-0.592,-0.3 L0.974,-0.3 L0.974,11.978 L0.974,11.978 Z M-0.144,11.53 L0.526,11.53 L0.526,0.148 L-0.144,0.148 L-0.144,11.53 L-0.144,11.53 Z"></path>
                </g>
                <g transform="translate(26.000000, 64.000000)" id="Shape">
                    <path d="M1.674,1.436 L1.64,1.436 L1.64,11.756 L0.522,11.756 L0.522,-0.076 L1.786,-0.076 L8.622,10.26 L8.654,10.26 L8.654,-0.076 L9.772,-0.076 L9.772,11.756 L8.474,11.756 L1.674,1.436 L1.674,1.436 Z"></path>
                    <path d="M9.996,11.978 L8.354,11.978 L8.286,11.878 L1.862,2.132 L1.862,11.978 L0.296,11.978 L0.296,-0.3 L1.904,-0.3 L8.428,9.562 L8.428,-0.3 L9.994,-0.3 L9.994,11.978 L9.996,11.978 Z M8.596,11.53 L9.55,11.53 L9.55,0.148 L8.88,0.148 L8.88,10.484 L8.536,10.484 L8.438,10.384 L1.668,0.15 L0.748,0.15 L0.748,11.532 L1.418,11.532 L1.418,1.212 L1.762,1.212 L1.862,1.312 L8.596,11.53 L8.596,11.53 Z"></path>
                </g>
                <g transform="translate(38.000000, 64.000000)" id="Shape">
                    <path d="M1.168,11.756 L1.168,-0.076 L9.038,-0.076 L9.038,0.876 L2.286,0.876 L2.286,5.148 L8.382,5.148 L8.382,6.1 L2.286,6.1 L2.286,10.8 L9.204,10.8 L9.204,11.752 L1.168,11.752 L1.168,11.756 Z"></path>
                    <path d="M9.428,11.978 L0.944,11.978 L0.944,-0.3 L9.264,-0.3 L9.264,1.102 L2.51,1.102 L2.51,4.926 L8.606,4.926 L8.606,6.326 L2.51,6.326 L2.51,10.578 L9.428,10.578 L9.428,11.978 L9.428,11.978 Z M1.392,11.53 L8.98,11.53 L8.98,11.026 L2.062,11.026 L2.062,5.878 L8.158,5.878 L8.158,5.374 L2.062,5.374 L2.062,0.654 L8.816,0.654 L8.816,0.15 L1.394,0.15 L1.394,11.53 L1.392,11.53 Z"></path>
                </g>
                <path d="M64.31,64.206 C63.98,62.768 63.372,61.742 62.48,61.132 C61.588,60.52 60.422,60.216 58.982,60.216 C57.964,60.216 57.088,60.42 56.352,60.828 C55.616,61.234 55.01,61.782 54.534,62.472 C54.056,63.16 53.704,63.954 53.478,64.854 C53.25,65.754 53.136,66.704 53.136,67.706 C53.136,68.644 53.234,69.568 53.43,70.476 C53.626,71.386 53.95,72.194 54.404,72.906 C54.858,73.618 55.468,74.194 56.234,74.632 C57.002,75.07 57.962,75.288 59.122,75.288 C59.84,75.288 60.498,75.17 61.092,74.936 C61.688,74.702 62.208,74.378 62.652,73.962 C63.098,73.548 63.474,73.058 63.78,72.496 C64.084,71.932 64.314,71.314 64.472,70.64 L66.138,70.64 C65.95,71.454 65.678,72.226 65.316,72.952 C64.956,73.678 64.484,74.318 63.898,74.864 C63.312,75.412 62.598,75.846 61.76,76.168 C60.922,76.488 59.942,76.65 58.814,76.65 C57.516,76.65 56.406,76.41 55.482,75.934 C54.558,75.456 53.802,74.812 53.216,73.996 C52.63,73.184 52.204,72.24 51.938,71.168 C51.672,70.096 51.538,68.958 51.538,67.752 C51.538,66.14 51.738,64.77 52.138,63.644 C52.538,62.518 53.09,61.598 53.794,60.886 C54.498,60.174 55.326,59.658 56.282,59.338 C57.236,59.018 58.278,58.856 59.404,58.856 C60.266,58.856 61.068,58.97 61.81,59.196 C62.552,59.424 63.21,59.764 63.782,60.218 C64.354,60.672 64.822,61.232 65.19,61.896 C65.556,62.562 65.812,63.332 65.952,64.208 L64.31,64.208 L64.31,64.206 Z" id="Shape"></path>
                <g transform="translate(68.000000, 64.000000)" id="Shape">
                    <path d="M0.79,5.544 C0.79,4.68 0.908,3.87 1.144,3.112 C1.378,2.358 1.728,1.696 2.186,1.132 C2.646,0.568 3.216,0.122 3.896,-0.208 C4.576,-0.536 5.358,-0.7 6.246,-0.7 C7.168,-0.7 7.974,-0.538 8.67,-0.214 C9.366,0.108 9.946,0.552 10.412,1.116 C10.878,1.682 11.228,2.344 11.464,3.104 C11.698,3.866 11.816,4.68 11.816,5.544 C11.816,6.398 11.698,7.202 11.464,7.952 C11.228,8.702 10.88,9.358 10.42,9.922 C9.96,10.486 9.384,10.932 8.694,11.262 C8.004,11.59 7.206,11.754 6.296,11.754 C5.386,11.754 4.586,11.59 3.896,11.262 C3.206,10.932 2.632,10.486 2.17,9.922 C1.708,9.358 1.364,8.702 1.134,7.952 C0.906,7.2 0.79,6.398 0.79,5.544 L0.79,5.544 Z M6.312,10.802 C7.08,10.802 7.738,10.656 8.292,10.368 C8.846,10.078 9.3,9.692 9.656,9.208 C10.012,8.726 10.274,8.168 10.444,7.532 C10.614,6.898 10.698,6.234 10.698,5.544 C10.698,4.722 10.598,3.986 10.394,3.336 C10.19,2.684 9.898,2.128 9.514,1.668 C9.13,1.208 8.664,0.856 8.118,0.616 C7.57,0.376 6.956,0.256 6.276,0.256 C5.522,0.256 4.866,0.404 4.312,0.7 C3.758,0.996 3.304,1.388 2.95,1.876 C2.592,2.362 2.33,2.926 2.16,3.56 C1.99,4.196 1.906,4.858 1.906,5.548 C1.906,6.25 1.99,6.918 2.16,7.554 C2.33,8.19 2.592,8.748 2.95,9.23 C3.306,9.712 3.76,10.096 4.312,10.38 C4.868,10.66 5.534,10.802 6.312,10.802 L6.312,10.802 Z"></path>
                    <path d="M6.296,11.978 C5.358,11.978 4.518,11.806 3.8,11.464 C3.084,11.122 2.478,10.65 1.996,10.064 C1.518,9.478 1.156,8.79 0.92,8.016 C0.684,7.244 0.566,6.412 0.566,5.542 C0.566,4.658 0.688,3.818 0.93,3.044 C1.17,2.268 1.536,1.576 2.012,0.99 C2.492,0.402 3.094,-0.068 3.798,-0.41 C4.506,-0.752 5.33,-0.924 6.244,-0.924 C7.196,-0.924 8.044,-0.754 8.764,-0.418 C9.486,-0.084 10.098,0.386 10.582,0.972 C11.066,1.558 11.434,2.252 11.678,3.036 C11.918,3.818 12.04,4.66 12.04,5.542 C12.04,6.414 11.918,7.246 11.678,8.018 C11.434,8.794 11.07,9.482 10.594,10.064 C10.114,10.65 9.508,11.122 8.792,11.464 C8.072,11.806 7.234,11.978 6.296,11.978 L6.296,11.978 Z M6.246,-0.474 C5.398,-0.474 4.64,-0.316 3.994,-0.004 C3.348,0.31 2.798,0.74 2.36,1.276 C1.92,1.818 1.584,2.458 1.36,3.18 C1.132,3.912 1.016,4.706 1.016,5.546 C1.016,6.37 1.13,7.16 1.352,7.888 C1.572,8.606 1.906,9.242 2.346,9.782 C2.784,10.318 3.34,10.748 3.994,11.062 C4.65,11.374 5.426,11.532 6.296,11.532 C7.166,11.532 7.942,11.374 8.598,11.062 C9.252,10.748 9.808,10.318 10.246,9.782 C10.684,9.244 11.022,8.606 11.25,7.886 C11.476,7.158 11.592,6.372 11.592,5.544 C11.592,4.706 11.476,3.908 11.25,3.17 C11.024,2.442 10.684,1.798 10.238,1.258 C9.796,0.722 9.238,0.296 8.576,-0.012 C7.916,-0.318 7.132,-0.474 6.246,-0.474 L6.246,-0.474 Z M6.312,11.026 C5.502,11.026 4.794,10.874 4.212,10.572 C3.632,10.276 3.148,9.866 2.772,9.358 C2.402,8.858 2.124,8.268 1.946,7.606 C1.772,6.958 1.684,6.264 1.684,5.542 C1.684,4.834 1.772,4.144 1.946,3.496 C2.124,2.834 2.402,2.242 2.772,1.738 C3.146,1.224 3.63,0.806 4.21,0.498 C4.792,0.186 5.49,0.028 6.28,0.028 C6.986,0.028 7.634,0.156 8.212,0.408 C8.79,0.666 9.288,1.04 9.69,1.524 C10.088,2 10.398,2.586 10.61,3.266 C10.818,3.934 10.924,4.7 10.924,5.542 C10.924,6.252 10.836,6.94 10.662,7.588 C10.486,8.246 10.208,8.836 9.838,9.338 C9.466,9.844 8.98,10.256 8.398,10.564 C7.812,10.872 7.11,11.026 6.312,11.026 L6.312,11.026 Z M6.278,0.478 C5.562,0.478 4.936,0.618 4.42,0.896 C3.902,1.174 3.468,1.546 3.134,2.006 C2.796,2.466 2.542,3.006 2.378,3.614 C2.214,4.226 2.132,4.874 2.132,5.544 C2.132,6.226 2.214,6.88 2.378,7.492 C2.542,8.098 2.794,8.638 3.132,9.092 C3.468,9.546 3.9,9.91 4.418,10.174 C4.936,10.442 5.574,10.578 6.312,10.578 C7.038,10.578 7.668,10.44 8.188,10.168 C8.71,9.894 9.144,9.526 9.476,9.074 C9.814,8.616 10.066,8.078 10.228,7.474 C10.392,6.864 10.474,6.214 10.474,5.544 C10.474,4.748 10.376,4.026 10.18,3.4 C9.986,2.776 9.704,2.242 9.344,1.81 C8.986,1.38 8.544,1.046 8.03,0.818 C7.51,0.592 6.922,0.478 6.278,0.478 L6.278,0.478 Z"></path>
                </g>
                <g transform="translate(82.000000, 64.000000)" id="Shape">
                    <path d="M0.8,-0.388 L1.918,-0.388 L1.918,6.66 C1.918,8.128 2.192,9.186 2.74,9.832 C3.288,10.478 4.17,10.8 5.386,10.8 C6.022,10.8 6.562,10.716 7.004,10.546 C7.448,10.376 7.806,10.118 8.082,9.774 C8.356,9.428 8.552,9 8.672,8.484 C8.792,7.968 8.854,7.362 8.854,6.658 L8.854,-0.39 L9.97,-0.39 L9.97,6.988 C9.97,8.532 9.59,9.714 8.828,10.528 C8.068,11.344 6.92,11.752 5.386,11.752 C3.842,11.752 2.692,11.336 1.936,10.504 C1.182,9.672 0.802,8.5 0.802,6.988 L0.802,-0.388 L0.8,-0.388 Z"></path>
                    <path d="M5.384,11.978 C3.78,11.978 2.564,11.534 1.768,10.656 C0.978,9.784 0.576,8.552 0.576,6.99 L0.576,-0.612 L2.142,-0.612 L2.142,6.66 C2.142,8.068 2.4,9.086 2.91,9.688 C3.412,10.278 4.244,10.578 5.384,10.578 C5.99,10.578 6.508,10.496 6.922,10.338 C7.33,10.182 7.652,9.952 7.904,9.636 C8.156,9.32 8.34,8.916 8.452,8.436 C8.568,7.938 8.628,7.342 8.628,6.662 L8.628,-0.61 L10.192,-0.61 L10.192,6.992 C10.192,8.59 9.788,9.832 8.99,10.686 C8.19,11.542 6.976,11.978 5.384,11.978 L5.384,11.978 Z M1.024,-0.164 L1.024,6.99 C1.024,8.436 1.386,9.57 2.1,10.354 C2.808,11.134 3.912,11.53 5.384,11.53 C6.848,11.53 7.95,11.142 8.662,10.378 C9.38,9.61 9.744,8.472 9.744,6.99 L9.744,-0.164 L9.076,-0.164 L9.076,6.66 C9.076,7.374 9.014,8.006 8.888,8.538 C8.76,9.082 8.548,9.546 8.254,9.914 C7.954,10.29 7.56,10.574 7.082,10.756 C6.616,10.934 6.044,11.026 5.382,11.026 C4.104,11.026 3.156,10.674 2.566,9.978 C1.978,9.284 1.692,8.198 1.692,6.66 L1.692,-0.164 L1.024,-0.164 L1.024,-0.164 Z"></path>
                </g>
                <g transform="translate(96.000000, 64.000000)" id="Shape">
                    <path d="M0.516,1.436 L0.482,1.436 L0.482,11.756 L-0.636,11.756 L-0.636,-0.076 L0.628,-0.076 L7.464,10.26 L7.496,10.26 L7.496,-0.076 L8.614,-0.076 L8.614,11.756 L7.316,11.756 L0.516,1.436 L0.516,1.436 Z"></path>
                    <path d="M8.84,11.978 L7.198,11.978 L7.13,11.878 L0.706,2.132 L0.706,11.978 L-0.86,11.978 L-0.86,-0.3 L0.748,-0.3 L7.272,9.562 L7.272,-0.3 L8.838,-0.3 L8.838,11.978 L8.84,11.978 Z M7.438,11.53 L8.392,11.53 L8.392,0.148 L7.724,0.148 L7.724,10.484 L7.38,10.484 L7.282,10.384 L0.51,0.15 L-0.41,0.15 L-0.41,11.532 L0.26,11.532 L0.26,1.212 L0.604,1.212 L0.704,1.312 L7.438,11.53 L7.438,11.53 Z"></path>
                </g>
                <g transform="translate(108.000000, 64.000000)" id="Shape">
                    <path d="M-0.164,-0.076 L8.446,-0.076 L8.446,0.876 L4.7,0.876 L4.7,11.754 L3.582,11.754 L3.582,0.876 L-0.164,0.876 L-0.164,-0.076 L-0.164,-0.076 Z"></path>
                    <path d="M4.924,11.978 L3.358,11.978 L3.358,1.1 L-0.388,1.1 L-0.388,-0.3 L8.67,-0.3 L8.67,1.102 L4.926,1.102 L4.926,11.978 L4.924,11.978 Z M3.806,11.53 L4.476,11.53 L4.476,0.652 L8.22,0.652 L8.22,0.148 L0.06,0.148 L0.06,0.652 L3.806,0.652 L3.806,11.53 L3.806,11.53 Z"></path>
                </g>
                <g transform="translate(118.000000, 64.000000)" id="Shape">
                    <path d="M1.89,6.382 L1.89,11.754 L0.772,11.754 L0.772,-0.078 L5.408,-0.078 C6.712,-0.078 7.708,0.166 8.398,0.654 C9.088,1.14 9.434,1.932 9.434,3.028 C9.434,3.772 9.284,4.364 8.982,4.802 C8.68,5.24 8.19,5.614 7.51,5.92 C7.86,6.04 8.136,6.216 8.332,6.446 C8.53,6.676 8.678,6.94 8.776,7.234 C8.874,7.53 8.938,7.842 8.966,8.172 C8.992,8.502 9.012,8.818 9.022,9.124 C9.034,9.574 9.054,9.946 9.08,10.242 C9.108,10.538 9.14,10.778 9.178,10.966 C9.216,11.152 9.264,11.298 9.318,11.4 C9.372,11.506 9.438,11.584 9.516,11.638 L9.516,11.754 L8.282,11.754 C8.162,11.556 8.078,11.282 8.028,10.932 C7.978,10.582 7.94,10.214 7.912,9.832 C7.884,9.448 7.862,9.076 7.848,8.714 C7.83,8.352 7.8,8.056 7.756,7.826 C7.692,7.508 7.584,7.254 7.436,7.062 C7.288,6.872 7.11,6.726 6.902,6.626 C6.694,6.528 6.46,6.464 6.204,6.43 C5.946,6.396 5.68,6.38 5.406,6.38 L1.89,6.38 L1.89,6.382 Z M5.374,5.43 C5.79,5.43 6.176,5.386 6.532,5.298 C6.888,5.21 7.198,5.07 7.46,4.878 C7.722,4.688 7.932,4.444 8.086,4.148 C8.238,3.852 8.316,3.496 8.316,3.08 C8.316,2.642 8.238,2.282 8.078,1.996 C7.918,1.712 7.704,1.486 7.436,1.322 C7.168,1.16 6.862,1.044 6.516,0.978 C6.17,0.912 5.812,0.878 5.438,0.878 L1.89,0.878 L1.89,5.43 L5.374,5.43 L5.374,5.43 Z"></path>
                    <path d="M9.74,11.978 L8.156,11.978 L8.09,11.87 C7.952,11.644 7.86,11.346 7.806,10.962 C7.758,10.608 7.718,10.236 7.69,9.848 C7.662,9.462 7.64,9.086 7.624,8.724 C7.608,8.37 7.578,8.082 7.536,7.868 C7.478,7.588 7.386,7.362 7.258,7.2 C7.134,7.038 6.98,6.914 6.802,6.828 C6.618,6.742 6.406,6.682 6.174,6.652 C5.932,6.62 5.672,6.604 5.406,6.604 L2.112,6.604 L2.112,11.976 L0.546,11.976 L0.546,-0.3 L5.406,-0.3 C6.75,-0.3 7.8,-0.04 8.524,0.472 C9.274,1.002 9.654,1.862 9.654,3.03 C9.654,3.818 9.49,4.458 9.164,4.932 C8.908,5.304 8.526,5.632 8.026,5.912 C8.212,6.02 8.372,6.15 8.5,6.302 C8.712,6.546 8.874,6.836 8.986,7.164 C9.09,7.48 9.158,7.814 9.186,8.154 C9.214,8.488 9.232,8.808 9.242,9.118 C9.254,9.564 9.274,9.932 9.298,10.224 C9.328,10.524 9.358,10.754 9.394,10.922 C9.436,11.126 9.482,11.24 9.512,11.298 C9.55,11.372 9.594,11.424 9.64,11.456 L9.736,11.524 L9.736,11.978 L9.74,11.978 Z M8.416,11.53 L9.132,11.53 C9.128,11.522 9.124,11.512 9.118,11.504 C9.052,11.382 9,11.22 8.956,11.012 C8.918,10.824 8.886,10.588 8.854,10.266 C8.826,9.964 8.808,9.588 8.796,9.132 C8.786,8.83 8.766,8.516 8.742,8.19 C8.716,7.884 8.656,7.586 8.564,7.304 C8.472,7.034 8.336,6.794 8.162,6.592 C7.992,6.394 7.75,6.24 7.436,6.132 L6.902,5.948 L7.416,5.716 C8.054,5.43 8.518,5.078 8.796,4.676 C9.07,4.278 9.208,3.724 9.208,3.028 C9.208,2 8.9,1.284 8.268,0.836 C7.62,0.378 6.658,0.146 5.408,0.146 L0.996,0.146 L0.996,11.528 L1.666,11.528 L1.666,6.156 L5.408,6.156 C5.694,6.156 5.972,6.172 6.234,6.206 C6.512,6.242 6.768,6.314 6.996,6.422 C7.24,6.538 7.446,6.708 7.614,6.924 C7.782,7.138 7.904,7.428 7.976,7.78 C8.022,8.02 8.052,8.322 8.072,8.704 C8.088,9.064 8.108,9.434 8.136,9.816 C8.164,10.192 8.202,10.556 8.252,10.902 C8.286,11.158 8.342,11.37 8.416,11.53 L8.416,11.53 Z M5.374,5.654 L1.666,5.654 L1.666,0.654 L5.438,0.654 C5.824,0.654 6.2,0.688 6.558,0.756 C6.924,0.824 7.26,0.95 7.552,1.128 C7.852,1.312 8.092,1.566 8.272,1.884 C8.45,2.202 8.54,2.604 8.54,3.078 C8.54,3.528 8.454,3.922 8.284,4.25 C8.116,4.576 7.882,4.848 7.592,5.06 C7.308,5.268 6.968,5.422 6.584,5.516 C6.216,5.608 5.808,5.654 5.374,5.654 L5.374,5.654 Z M2.116,5.206 L5.376,5.206 C5.774,5.206 6.146,5.164 6.48,5.08 C6.806,5 7.092,4.872 7.33,4.698 C7.566,4.526 7.752,4.308 7.888,4.044 C8.024,3.78 8.092,3.456 8.092,3.078 C8.092,2.682 8.022,2.352 7.882,2.102 C7.742,1.852 7.552,1.652 7.32,1.51 C7.074,1.36 6.79,1.254 6.476,1.196 C6.146,1.132 5.798,1.1 5.44,1.1 L2.116,1.1 L2.116,5.206 L2.116,5.206 Z"></path>
                </g>
                <g transform="translate(130.000000, 64.000000)" id="Shape">
                    <path d="M5.024,5.626 L8.588,-0.076 L9.886,-0.076 L5.598,6.596 L5.598,11.754 L4.48,11.754 L4.48,6.676 L0.258,-0.076 L1.538,-0.076 L5.024,5.626 L5.024,5.626 Z"></path>
                    <path d="M5.822,11.978 L4.256,11.978 L4.256,6.74 L-0.146,-0.3 L1.664,-0.3 L5.024,5.2 L8.462,-0.3 L10.294,-0.3 L5.82,6.662 L5.82,11.978 L5.822,11.978 Z M4.704,11.53 L5.374,11.53 L5.374,6.53 L5.41,6.476 L9.476,0.15 L8.714,0.15 L5.024,6.054 L1.416,0.15 L0.666,0.15 L4.706,6.614 L4.706,11.53 L4.704,11.53 Z"></path>
                </g>
                <path d="M143.646,75.756 L143.646,58.856 L149.75,58.856 C150.734,58.856 151.58,58.958 152.284,59.16 C152.988,59.364 153.562,59.652 154.01,60.028 C154.454,60.402 154.78,60.854 154.984,61.376 C155.188,61.902 155.288,62.476 155.288,63.102 C155.288,63.698 155.21,64.21 155.054,64.64 C154.898,65.07 154.694,65.43 154.444,65.72 C154.194,66.01 153.908,66.236 153.588,66.402 C153.266,66.566 152.932,66.68 152.59,66.742 L152.59,66.79 C153.764,66.962 154.636,67.424 155.208,68.176 C155.78,68.926 156.064,69.864 156.064,70.992 C156.064,71.868 155.928,72.61 155.654,73.222 C155.378,73.832 155,74.326 154.516,74.7 C154.03,75.074 153.448,75.344 152.768,75.51 C152.086,75.674 151.348,75.756 150.548,75.756 L143.646,75.756 L143.646,75.756 Z M145.244,66.318 L149.282,66.318 C150.11,66.318 150.808,66.248 151.37,66.106 C151.934,65.966 152.388,65.76 152.732,65.484 C153.078,65.21 153.324,64.874 153.472,64.476 C153.62,64.076 153.694,63.62 153.694,63.102 C153.694,62.572 153.608,62.122 153.434,61.754 C153.262,61.386 152.99,61.088 152.612,60.86 C152.238,60.634 151.748,60.47 151.146,60.368 C150.544,60.266 149.804,60.216 148.928,60.216 L145.242,60.216 L145.242,66.318 L145.244,66.318 Z M145.244,74.394 L149.304,74.394 C150.18,74.394 150.944,74.356 151.592,74.276 C152.242,74.198 152.778,74.038 153.2,73.794 C153.624,73.552 153.94,73.208 154.152,72.76 C154.364,72.316 154.47,71.724 154.47,70.99 C154.47,70.286 154.352,69.718 154.118,69.288 C153.884,68.858 153.546,68.526 153.11,68.292 C152.672,68.058 152.146,67.896 151.536,67.81 C150.926,67.724 150.244,67.68 149.494,67.68 L145.246,67.68 L145.246,74.394 L145.244,74.394 Z" id="Shape"></path>
                <g transform="translate(158.000000, 64.000000)" id="Shape">
                    <path d="M1.5,6.382 L1.5,11.754 L0.382,11.754 L0.382,-0.078 L5.018,-0.078 C6.322,-0.078 7.318,0.166 8.008,0.654 C8.698,1.14 9.044,1.932 9.044,3.028 C9.044,3.772 8.894,4.364 8.592,4.802 C8.29,5.24 7.8,5.614 7.12,5.92 C7.47,6.04 7.746,6.216 7.942,6.446 C8.14,6.676 8.288,6.94 8.386,7.234 C8.484,7.53 8.548,7.842 8.576,8.172 C8.602,8.502 8.622,8.818 8.632,9.124 C8.644,9.574 8.664,9.946 8.69,10.242 C8.718,10.538 8.75,10.778 8.788,10.966 C8.826,11.152 8.874,11.298 8.928,11.4 C8.982,11.506 9.048,11.584 9.126,11.638 L9.126,11.754 L7.892,11.754 C7.772,11.556 7.688,11.282 7.638,10.932 C7.588,10.582 7.55,10.214 7.522,9.832 C7.494,9.448 7.472,9.076 7.458,8.714 C7.44,8.352 7.41,8.056 7.366,7.826 C7.302,7.508 7.194,7.254 7.046,7.062 C6.898,6.872 6.72,6.726 6.512,6.626 C6.304,6.528 6.07,6.464 5.814,6.43 C5.556,6.396 5.29,6.38 5.016,6.38 L1.5,6.38 L1.5,6.382 Z M4.984,5.43 C5.4,5.43 5.786,5.386 6.142,5.298 C6.498,5.21 6.808,5.07 7.07,4.878 C7.332,4.688 7.542,4.444 7.696,4.148 C7.848,3.852 7.926,3.496 7.926,3.08 C7.926,2.642 7.848,2.282 7.688,1.996 C7.528,1.712 7.314,1.486 7.046,1.322 C6.778,1.16 6.472,1.044 6.126,0.978 C5.78,0.912 5.422,0.878 5.048,0.878 L1.5,0.878 L1.5,5.43 L4.984,5.43 L4.984,5.43 Z"></path>
                    <path d="M9.348,11.978 L7.766,11.978 L7.7,11.87 C7.562,11.646 7.468,11.35 7.414,10.964 C7.366,10.608 7.326,10.236 7.298,9.85 C7.27,9.464 7.248,9.088 7.232,8.726 C7.214,8.366 7.184,8.084 7.144,7.87 C7.088,7.59 6.994,7.364 6.866,7.202 C6.742,7.04 6.59,6.916 6.412,6.83 C6.228,6.744 6.016,6.684 5.782,6.654 C5.54,6.622 5.282,6.606 5.014,6.606 L1.72,6.606 L1.72,11.978 L0.154,11.978 L0.154,-0.3 L5.014,-0.3 C6.36,-0.3 7.41,-0.04 8.134,0.472 C8.884,1.002 9.264,1.862 9.264,3.03 C9.264,3.818 9.098,4.458 8.772,4.932 C8.516,5.304 8.136,5.632 7.634,5.912 C7.82,6.02 7.978,6.15 8.106,6.302 C8.318,6.548 8.482,6.838 8.594,7.164 C8.698,7.476 8.764,7.808 8.794,8.154 C8.822,8.488 8.842,8.808 8.852,9.118 C8.864,9.564 8.884,9.932 8.908,10.224 C8.936,10.522 8.968,10.75 9.002,10.922 C9.044,11.126 9.09,11.24 9.122,11.298 C9.158,11.37 9.202,11.422 9.25,11.456 L9.346,11.524 L9.346,11.978 L9.348,11.978 Z M8.026,11.53 L8.74,11.53 C8.736,11.522 8.732,11.512 8.726,11.504 C8.662,11.382 8.61,11.22 8.564,11.012 C8.526,10.822 8.492,10.578 8.462,10.264 C8.434,9.962 8.416,9.586 8.404,9.132 C8.394,8.83 8.374,8.516 8.348,8.19 C8.322,7.882 8.262,7.584 8.17,7.306 C8.08,7.036 7.944,6.796 7.768,6.594 C7.598,6.396 7.356,6.242 7.044,6.134 L6.51,5.95 L7.024,5.718 C7.662,5.43 8.126,5.08 8.402,4.678 C8.676,4.28 8.816,3.726 8.816,3.03 C8.816,2.002 8.508,1.286 7.876,0.838 C7.228,0.38 6.266,0.148 5.016,0.148 L0.604,0.148 L0.604,11.53 L1.274,11.53 L1.274,6.158 L5.016,6.158 C5.302,6.158 5.582,6.174 5.842,6.208 C6.122,6.244 6.378,6.316 6.606,6.424 C6.85,6.542 7.056,6.71 7.222,6.926 C7.39,7.142 7.514,7.43 7.584,7.782 C7.63,8.02 7.66,8.32 7.68,8.704 C7.696,9.064 7.716,9.436 7.744,9.816 C7.772,10.192 7.81,10.556 7.858,10.902 C7.896,11.16 7.952,11.37 8.026,11.53 L8.026,11.53 Z M4.984,5.654 L1.276,5.654 L1.276,0.654 L5.048,0.654 C5.434,0.654 5.81,0.688 6.168,0.756 C6.534,0.824 6.868,0.95 7.162,1.128 C7.462,1.312 7.704,1.566 7.882,1.884 C8.06,2.202 8.148,2.604 8.148,3.078 C8.148,3.528 8.062,3.922 7.894,4.25 C7.724,4.576 7.492,4.848 7.202,5.06 C6.916,5.27 6.576,5.422 6.194,5.516 C5.826,5.608 5.418,5.654 4.984,5.654 L4.984,5.654 Z M1.724,5.206 L4.984,5.206 C5.382,5.206 5.754,5.164 6.088,5.08 C6.414,5 6.7,4.872 6.938,4.696 C7.172,4.526 7.36,4.308 7.496,4.042 C7.632,3.78 7.7,3.456 7.7,3.078 C7.7,2.68 7.63,2.352 7.49,2.102 C7.35,1.852 7.16,1.652 6.928,1.51 C6.682,1.36 6.398,1.254 6.084,1.196 C5.752,1.132 5.404,1.1 5.048,1.1 L1.724,1.1 L1.724,5.206 L1.724,5.206 Z"></path>
                </g>
                <g transform="translate(170.000000, 64.000000)" id="Shape">
                    <path d="M0.502,11.756 L0.502,-0.076 L1.62,-0.076 L1.62,11.756 L0.502,11.756 L0.502,11.756 Z"></path>
                    <path d="M1.844,11.978 L0.278,11.978 L0.278,-0.3 L1.844,-0.3 L1.844,11.978 L1.844,11.978 Z M0.726,11.53 L1.396,11.53 L1.396,0.148 L0.726,0.148 L0.726,11.53 L0.726,11.53 Z"></path>
                </g>
                <g transform="translate(176.000000, 64.000000)" id="Shape">
                    <path d="M-0.574,11.756 L-0.574,-0.076 L3.468,-0.076 C3.798,-0.076 4.12,-0.068 4.438,-0.052 C4.756,-0.034 5.066,0.004 5.374,0.064 C5.68,0.124 5.98,0.214 6.27,0.336 C6.56,0.456 6.842,0.614 7.116,0.812 C7.51,1.096 7.832,1.444 8.084,1.854 C8.336,2.266 8.536,2.698 8.684,3.152 C8.832,3.608 8.934,4.068 8.996,4.532 C9.056,4.998 9.086,5.428 9.086,5.824 C9.086,6.22 9.062,6.618 9.012,7.022 C8.962,7.428 8.884,7.826 8.774,8.214 C8.666,8.602 8.52,8.974 8.34,9.33 C8.158,9.688 7.932,10.014 7.656,10.31 C7.382,10.616 7.084,10.862 6.76,11.05 C6.438,11.236 6.098,11.382 5.742,11.484 C5.384,11.59 5.016,11.66 4.632,11.698 C4.248,11.736 3.86,11.756 3.466,11.756 L-0.574,11.756 L-0.574,11.756 Z M0.544,10.802 L3.222,10.802 C3.724,10.802 4.2,10.772 4.642,10.71 C5.086,10.65 5.538,10.5 5.998,10.258 C6.392,10.062 6.714,9.794 6.966,9.454 C7.218,9.114 7.418,8.744 7.566,8.346 C7.714,7.944 7.818,7.526 7.878,7.088 C7.938,6.65 7.97,6.228 7.97,5.824 C7.97,5.396 7.942,4.96 7.888,4.518 C7.832,4.074 7.728,3.652 7.574,3.254 C7.422,2.852 7.214,2.486 6.95,2.152 C6.688,1.82 6.348,1.542 5.93,1.322 C5.58,1.136 5.164,1.016 4.682,0.962 C4.198,0.908 3.712,0.88 3.22,0.88 L0.542,0.88 L0.542,10.802 L0.544,10.802 Z"></path>
                    <path d="M3.468,11.978 L-0.798,11.978 L-0.798,-0.3 L3.468,-0.3 C3.802,-0.3 4.126,-0.292 4.45,-0.276 C4.776,-0.258 5.102,-0.218 5.416,-0.156 C5.738,-0.094 6.054,0.002 6.356,0.13 C6.662,0.256 6.962,0.424 7.248,0.63 C7.662,0.928 8.008,1.3 8.276,1.738 C8.534,2.16 8.744,2.614 8.898,3.084 C9.048,3.552 9.156,4.03 9.218,4.504 C9.28,4.976 9.31,5.42 9.31,5.824 C9.31,6.228 9.284,6.64 9.234,7.05 C9.184,7.472 9.102,7.884 8.988,8.276 C8.878,8.67 8.728,9.06 8.538,9.432 C8.344,9.814 8.108,10.152 7.818,10.462 C7.536,10.78 7.216,11.044 6.872,11.244 C6.536,11.436 6.178,11.59 5.804,11.7 C5.442,11.806 5.056,11.882 4.654,11.922 C4.266,11.96 3.866,11.978 3.468,11.978 L3.468,11.978 Z M-0.35,11.53 L3.468,11.53 C3.852,11.53 4.238,11.51 4.612,11.474 C4.986,11.436 5.348,11.368 5.682,11.268 C6.02,11.17 6.346,11.03 6.652,10.854 C6.954,10.68 7.238,10.446 7.49,10.16 C7.754,9.876 7.966,9.572 8.142,9.228 C8.318,8.884 8.458,8.522 8.56,8.154 C8.666,7.782 8.744,7.392 8.792,6.994 C8.84,6.602 8.864,6.208 8.864,5.822 C8.864,5.436 8.834,5.012 8.776,4.56 C8.716,4.112 8.616,3.66 8.474,3.22 C8.332,2.784 8.136,2.364 7.896,1.97 C7.658,1.584 7.352,1.256 6.988,0.992 C6.73,0.806 6.46,0.654 6.186,0.54 C5.912,0.426 5.624,0.338 5.332,0.282 C5.038,0.226 4.732,0.188 4.428,0.172 C4.114,0.156 3.796,0.148 3.47,0.148 L-0.348,0.148 L-0.348,11.53 L-0.35,11.53 Z M3.222,11.026 L0.32,11.026 L0.32,0.652 L3.222,0.652 C3.714,0.652 4.216,0.68 4.71,0.734 C5.214,0.79 5.662,0.92 6.038,1.12 C6.48,1.354 6.848,1.652 7.128,2.01 C7.406,2.364 7.626,2.754 7.784,3.172 C7.94,3.578 8.052,4.02 8.11,4.486 C8.166,4.942 8.194,5.392 8.194,5.822 C8.194,6.226 8.162,6.662 8.102,7.116 C8.04,7.564 7.932,8.004 7.778,8.422 C7.622,8.842 7.41,9.232 7.148,9.586 C6.874,9.954 6.522,10.246 6.1,10.458 C5.622,10.71 5.14,10.868 4.674,10.932 C4.222,10.996 3.734,11.026 3.222,11.026 L3.222,11.026 Z M0.768,10.578 L3.222,10.578 C3.714,10.578 4.182,10.548 4.612,10.488 C5.028,10.432 5.458,10.288 5.894,10.06 C6.256,9.88 6.556,9.632 6.786,9.322 C7.022,9.002 7.216,8.648 7.356,8.268 C7.498,7.882 7.6,7.474 7.656,7.058 C7.716,6.624 7.744,6.208 7.744,5.824 C7.744,5.412 7.716,4.982 7.664,4.544 C7.61,4.116 7.508,3.706 7.364,3.334 C7.222,2.958 7.024,2.606 6.774,2.29 C6.532,1.984 6.212,1.724 5.826,1.52 C5.5,1.348 5.106,1.234 4.658,1.184 C4.182,1.13 3.698,1.102 3.222,1.102 L0.768,1.102 L0.768,10.578 L0.768,10.578 Z"></path>
                </g>
                <g transform="translate(188.000000, 64.000000)" id="Shape">
                    <path d="M0.04,11.756 L0.04,-0.076 L7.91,-0.076 L7.91,0.876 L1.158,0.876 L1.158,5.148 L7.254,5.148 L7.254,6.1 L1.158,6.1 L1.158,10.8 L8.076,10.8 L8.076,11.752 L0.04,11.752 L0.04,11.756 Z"></path>
                    <path d="M8.298,11.978 L-0.186,11.978 L-0.186,-0.3 L8.132,-0.3 L8.132,1.102 L1.38,1.102 L1.38,4.926 L7.476,4.926 L7.476,6.326 L1.38,6.326 L1.38,10.578 L8.298,10.578 L8.298,11.978 L8.298,11.978 Z M0.264,11.53 L7.85,11.53 L7.85,11.026 L0.932,11.026 L0.932,5.878 L7.028,5.878 L7.028,5.374 L0.932,5.374 L0.932,0.654 L7.686,0.654 L7.686,0.15 L0.264,0.15 L0.264,11.53 L0.264,11.53 Z"></path>
                </g>
            </g>
        </g>
    </g>
</svg>