<svg width="50" height="58" viewBox="0 0 50 58" xmlns="http://www.w3.org/2000/svg"><path d="M2.037 46.86v-44h20v13a1 1 0 0 0 1 1h13v16.05c.33-.025.663-.05 1-.05.337 0 .67.025 1 .05V15.86a.997.997 0 0 0-.293-.707l-14-14A1.003 1.003 0 0 0 23.04.86h-21a2 2 0 0 0-2 2v44a2 2 0 0 0 2 2h22.36c-.153-.65-.258-1.316-.31-2H2.037zm22-42.585L34.623 14.86H24.037V4.275zm14 36.585h-2v4h-4v2h4v4h2v-4h4v-2h-4v-4zm-1-6c-6.075 0-11 4.925-11 11s4.925 11 11 11 11-4.925 11-11-4.925-11-11-11zm0 20a9 9 0 0 1-9-9 9 9 0 0 1 9-9 9 9 0 0 1 9 9 9 9 0 0 1-9 9z" fill="none" fill-rule="evenodd"/></svg>
