<svg width="58" height="58" viewBox="0 0 58 58" xmlns="http://www.w3.org/2000/svg"><path d="M34.037 6.022c.01-.003.016-.01.024-.012.022-.012 2.188-1.087 4.542-1.087 2.607 0 4.303 1.29 5.183 3.947l.057.17.11.14c.122.157 2.98 3.894.743 8.398l-.24.507.282.476c.034.06.8 1.385.04 3.146-.8.69-3.613 3.41-3.613 7.53 0 1.93.363 3.14.933 4.01a12.884 12.884 0 0 1 2.472-.325c-.97-.685-1.392-1.448-1.392-3.684 0-3.683 3.002-6.068 3.03-6.09l.187-.146.104-.213c1.023-2.11.56-3.904.21-4.76 2.196-4.983-.46-9.11-1.07-9.957C44.155 3.8 41 2.896 38.6 2.896c-2.824 0-5.336 1.247-5.364 1.266l-.105.048c.206.416.406.838.576 1.296.094.14.207.32.327.516zm-.445 31.016c-.583-.39-1.13-.704-1.632-.995-2.007-1.16-2.923-1.314-2.923-4.798 0-4.363 3.574-7.18 3.607-7.206l.188-.145.104-.21c1.198-2.452.612-4.52.213-5.45 2.604-5.774-.55-10.552-1.218-11.465C30.236 1.89 26.62.86 23.87.86c-3.262 0-6.158 1.43-6.204 1.456-3.017 1.207-5.074 3.133-6.114 5.724-1.68 4.184-.156 8.78.396 10.19-1.354 3.27.207 5.5.276 5.6l.21.214c.037.026 3.603 2.784 3.603 7.2 0 4.28-2.346 4.688-5.316 5.678l-.388.128C6.99 38.15.037 40.436.037 47.87v1H32.4a13 13 0 0 1-.306-2h-30c.606-5.204 5.926-6.954 8.863-7.92l.396-.132c2.978-.992 6.684-1.853 6.684-7.573 0-4.91-3.442-8.02-4.24-8.675-.215-.385-.85-1.822.142-3.894l.2-.42-.192-.426c-.02-.05-2.196-4.92-.54-9.046.83-2.064 2.512-3.616 5.076-4.645.025-.013 2.61-1.28 5.385-1.28 3.13 0 5.164 1.537 6.22 4.7l.055.17.11.14c.037.045 3.57 4.563.888 9.928l-.25.503.298.478c.012.017 1.01 1.647.038 3.838-.872.738-4.19 3.864-4.19 8.63 0 4.415 1.49 5.125 3.923 6.53.47.27.98.564 1.523.927.39.26.826.498 1.295.73a13.17 13.17 0 0 1 1.138-1.673c-.5-.24-.957-.477-1.324-.722zm11.454-2.142c-6.075 0-11 4.925-11 11s4.925 11 11 11 11-4.925 11-11-4.925-11-11-11zm0 20a9 9 0 0 1-9-9 9 9 0 0 1 9-9 9 9 0 0 1 0 18zm1-14h-2v4h-4v2h4v4h2v-4h4v-2h-4v-4z" fill="#000" fill-rule="evenodd"/></svg>