<svg xmlns="http://www.w3.org/2000/svg" width="55.98" height="55.98" viewBox="0 0 55.98 55.98"><path d="M52.153 3.827c-5.103-5.103-13.375-5.103-18.478 0l-11.37 11.37c-.533.534-.99 1.113-1.412 1.71a15.114 15.114 0 0 1 2.957-.41l11.247-11.25c4.317-4.315 11.317-4.315 15.635 0 4.317 4.32 4.317 11.32 0 15.637l-11.37 11.37c-4.317 4.318-11.317 4.318-15.635 0a11.026 11.026 0 0 1-3.188-8.863 9.034 9.034 0 0 0-2.047 1.35 13.015 13.015 0 0 0 3.812 8.937c5.103 5.103 13.375 5.103 18.478 0l11.37-11.37c5.103-5.105 5.103-13.377 0-18.48zm-31.27 46.905c-4.316 4.316-11.316 4.316-15.635 0-4.317-4.318-4.317-11.318 0-15.636l11.37-11.37c4.318-4.317 11.318-4.317 15.636 0a11.026 11.026 0 0 1 3.188 8.863 8.967 8.967 0 0 0 2.046-1.35 13.02 13.02 0 0 0-3.812-8.937c-5.103-5.103-13.375-5.103-18.478 0L3.828 33.676c-5.104 5.103-5.104 13.375 0 18.478s13.374 5.103 18.477 0l11.37-11.37c.534-.534.99-1.113 1.413-1.71-.974.235-1.962.373-2.957.41L20.885 50.733z"/></svg>