<svg xmlns="http://www.w3.org/2000/svg" width="56" height="48" viewBox="0 0 56 48"><path d="M5.73 24.998a1 1 0 0 0 1.322-.503c.188-.425.525-.938.945-1.445a1 1 0 1 0-1.54-1.276c-.54.65-.966 1.31-1.232 1.902-.225.504 0 1.096.504 1.322zm8.727.333a1 1 0 0 0 1.26-.645l.036-.125a5.266 5.266 0 0 0 .114-2.34c-.1-.543-.616-.9-1.163-.806-.543.1-.903.62-.805 1.164.032.183.05.37.048.56 0 .298-.04.595-.136.934-.168.526.12 1.09.645 1.26zm-.188 7.33a1 1 0 0 0-1.074 1.69c.68.434 1.497.66 2.425.675h.018a1 1 0 0 0 .015-2c-.552-.01-1.02-.132-1.384-.365zm10.58-5.57c-.506.454-1.007.966-1.476 1.45a1.002 1.002 0 0 0 .718 1.698 1 1 0 0 0 .72-.305c.444-.46.916-.944 1.374-1.355.41-.37.444-1.003.076-1.413a1 1 0 0 0-1.412-.076zm-14.516-6.142a.99.99 0 0 0 .36-.067l.093-.033c.496-.166.96-.22 1.362-.157a1.01 1.01 0 0 0 1.136-.842 1.002 1.002 0 0 0-.842-1.138c-.7-.104-1.488-.03-2.304.243l-.168.062a1 1 0 0 0 .362 1.933zm1.973 6.767c-.306.78-.522 1.446-.663 2.037a1 1 0 1 0 1.946.462 13.66 13.66 0 0 1 .578-1.77 1 1 0 1 0-1.86-.73zm19.088-1.98c-.797-.366-1.583-.556-2.337-.562h-.008a1 1 0 0 0-.01 2.002c.478.004.974.128 1.52.38a1 1 0 0 0 .835-1.82zm17.98-2.157a1 1 0 0 0-.758 1.195c.144.642.255 1.272.33 1.874a1 1 0 1 0 1.984-.246 21.672 21.672 0 0 0-.362-2.064 1 1 0 0 0-1.194-.758zm-8.604-10.59l3.214 1.072-1.548 3.475a1 1 0 1 0 1.826.814l1.628-3.653 2.88.96a1 1 0 0 0 1.265-.633 1 1 0 0 0-.632-1.265l-2.695-.9 1.03-2.312a1 1 0 0 0-1.825-.815l-1.11 2.49-3.4-1.133a.997.997 0 0 0-1.264.633 1 1 0 0 0 .63 1.266zM38 4h-2L20 0h-2L0 4v44l18-4h2l16 4h2l18-4V0L38 4zM18 42h-.22l-.214.048L2 45.508V5.603l16-3.556V42zm18-12.824c-.368-.332-.736-.666-1.108-.988a1 1 0 0 0-1.307 1.515c.476.41.945.837 1.476 1.317a.94.94 0 0 0 .634.247.984.984 0 0 0 .308-.067v14.74l-15.518-3.88-.238-.06H20v-8.138c.343-.172.667-.35.945-.522.286-.178.562-.368.83-.568.44-.332.53-.96.2-1.4s-.958-.532-1.4-.203c-.186.14-.38.27-.575.395V2.062L35.516 5.94l.238.06H36v23.176zm18 13.22l-16 3.556V33.448c.06.078.116.157.2.218.628.458 1.22.833 1.81 1.145a1 1 0 0 0 .935-1.77 12.93 12.93 0 0 1-1.567-.992A1 1 0 0 0 38 32.25V6h.22l.215-.048L54 2.492v39.904zm-5.233-20.73c.51-.21.752-.796.54-1.307a21.263 21.263 0 0 0-.894-1.9 1 1 0 1 0-1.764.943c.286.537.56 1.116.81 1.722a.998.998 0 0 0 1.307.542zm1.313 7.86a1 1 0 0 0-1.16.808 6.087 6.087 0 0 1-.52 1.632 1.003 1.003 0 0 0 .895 1.447 1 1 0 0 0 .896-.554 8.08 8.08 0 0 0 .696-2.17 1 1 0 0 0-.806-1.164zm-4.03 4.32c-.125.03-.254.054-.387.072-.365.053-.73.08-1.08.08l-.26-.006c-.546-.028-1.013.417-1.03.97a.998.998 0 0 0 .97 1.03l.31.007c.453 0 .914-.034 1.373-.1.194-.028.382-.063.562-.105a1.002 1.002 0 0 0-.46-1.95z"/></svg>