<svg xmlns="http://www.w3.org/2000/svg" width="56" height="56" viewBox="0 0 56 56"><path d="M17 45h18a1 1 0 1 0 0-2H17a1 1 0 1 0 0 2zm0-5h22a1 1 0 1 0 0-2H17a1 1 0 1 0 0 2zm35-24h-6V2a2 2 0 0 0-2-2H12a2 2 0 0 0-2 2v14H4a4 4 0 0 0-4 4v22a4 4 0 0 0 4 4h6v8a2 2 0 0 0 2 2h32a2 2 0 0 0 2-2v-8h6a4 4 0 0 0 4-4V20a4 4 0 0 0-4-4zM12 2h32v14H12V2zm32 52H12V34h32v20zm10-12a2 2 0 0 1-2 2h-6V34a2 2 0 0 0-2-2H12a2 2 0 0 0-2 2v10H4a2 2 0 0 1-2-2V20a2 2 0 0 1 2-2h48a2 2 0 0 1 2 2v22zm-6-20a2 2 0 1 0 0 4 2 2 0 0 0 0-4zM17 50h22a1 1 0 1 0 0-2H17a1 1 0 1 0 0 2z"/></svg>