<svg xmlns="http://www.w3.org/2000/svg" width="42" height="56" viewBox="0 0 42 56"><path d="M41 6H30V4a4 4 0 0 0-4-4H16a4 4 0 0 0-4 4v2H1a1 1 0 0 0 0 2h1l4 44a4 4 0 0 0 4 4h22a4 4 0 0 0 4-4l4-44h1a1 1 0 1 0 0-2zM14 4a2 2 0 0 1 2-2h10a2 2 0 0 1 2 2v2H14V4zm.06 46.002a1.002 1.002 0 0 1-1.058-.94l-1.99-36.002c-.032-.552.39-1.026.94-1.06s1.024.39 1.057.942l1.99 36c.03.554-.39 1.028-.94 1.06zM22 49a1 1 0 1 1-2 0V13a1 1 0 0 1 2 0v36zm6.998.062a1 1 0 0 1-1.995-.118l1.99-35.94a.998.998 0 0 1 1.058-.94c.55.03.97.505.938 1.056l-1.99 35.942z"/></svg>