<svg width="50" height="58" viewBox="0 0 50 58" xmlns="http://www.w3.org/2000/svg"><path d="M2.094 46.87c.606-5.204 5.926-6.954 8.863-7.92l.396-.132c2.978-.992 6.684-1.853 6.684-7.573 0-4.91-3.442-8.02-4.24-8.675-.215-.385-.85-1.822.142-3.894l.2-.42-.192-.426c-.02-.05-2.196-4.92-.54-9.046.83-2.064 2.512-3.616 5.076-4.645.025-.013 2.61-1.28 5.385-1.28 3.13 0 5.164 1.537 6.22 4.7l.055.17.11.14c.037.045 3.57 4.563.888 9.928l-.25.503.298.478c.012.017 1.01 1.647.038 3.838-.872.738-4.19 3.864-4.19 8.63 0 2.624.53 3.937 1.468 4.867a13.027 13.027 0 0 1 1.62-1.207c-.738-.633-1.09-1.514-1.09-3.66 0-4.364 3.575-7.18 3.608-7.207l.188-.145.104-.21c1.198-2.452.612-4.52.213-5.45 2.604-5.774-.55-10.552-1.218-11.465C30.236 1.89 26.62.86 23.87.86c-3.262 0-6.158 1.43-6.204 1.456-3.017 1.207-5.074 3.133-6.114 5.724-1.68 4.184-.156 8.78.396 10.19-1.354 3.27.207 5.5.276 5.6l.21.214c.037.026 3.603 2.784 3.603 7.2 0 4.28-2.346 4.688-5.316 5.678l-.388.128C6.99 38.15.037 40.436.037 47.87v1H24.4a12.998 12.998 0 0 1-.305-2h-22zm35.952-5.974h-2v4h-4v2h4v4h2v-4h4v-2h-4v-4zm-1-6c-6.075 0-11 4.925-11 11s4.925 11 11 11 11-4.925 11-11-4.925-11-11-11zm0 20a9 9 0 0 1-9-9 9 9 0 0 1 9-9 9 9 0 0 1 0 18z" fill="#000" fill-rule="evenodd"/></svg>